<?xml version="1.0" standalone="no"?><!DOCTYPE svg PUBLIC "-//W3C//DTD SVG 1.1//EN" "http://www.w3.org/Graphics/SVG/1.1/DTD/svg11.dtd"><svg t="1725434480487" class="icon" viewBox="0 0 1024 1024" version="1.1" xmlns="http://www.w3.org/2000/svg" p-id="11220" xmlns:xlink="http://www.w3.org/1999/xlink" width="200" height="200"><path d="M883.6 816.6H140.4c-43.1 0-78.4-35.3-78.4-78.4V285.8c0-43.1 35.3-78.4 78.4-78.4h743.2c43.1 0 78.4 35.3 78.4 78.4v452.5c0 43-35.3 78.3-78.4 78.3z" fill="#F3D925" p-id="11221"></path><path d="M883.6 835.1H140.4c-53.4 0-96.8-43.4-96.8-96.8V285.8c0-53.4 43.4-96.8 96.8-96.8h743.2c53.4 0 96.8 43.4 96.8 96.8v452.5c0.1 53.3-43.4 96.8-96.8 96.8zM140.4 225.8c-33 0-59.9 26.9-59.9 59.9v452.5c0 33 26.9 59.9 59.9 59.9h743.2c33 0 59.9-26.9 59.9-59.9V285.8c0-33-26.9-59.9-59.9-59.9H140.4z" fill="#6A3906" p-id="11222"></path><path d="M175.8 398.6c-28.8 0-51.3-29.2-51.3-66.5s22.5-66.5 51.3-66.5c28.8 0 51.3 29.2 51.3 66.5s-22.6 66.5-51.3 66.5z m0-96c-5.7 0-14.4 11.8-14.4 29.5s8.6 29.5 14.4 29.5 14.4-11.8 14.4-29.5-8.7-29.5-14.4-29.5zM522.5 398.6c-28.8 0-51.3-29.2-51.3-66.5s22.5-66.5 51.3-66.5c28.8 0 51.3 29.2 51.3 66.5s-22.5 66.5-51.3 66.5z m0-96c-5.7 0-14.4 11.8-14.4 29.5s8.6 29.5 14.4 29.5 14.4-11.8 14.4-29.5-8.7-29.5-14.4-29.5zM520.2 578.5c-28.8 0-51.3-29.2-51.3-66.5s22.5-66.5 51.3-66.5c28.8 0 51.3 29.2 51.3 66.5s-22.5 66.5-51.3 66.5z m0-96c-5.7 0-14.4 11.8-14.4 29.5s8.6 29.5 14.4 29.5 14.4-11.8 14.4-29.5-8.6-29.5-14.4-29.5zM642 398.6c-28.8 0-51.3-29.2-51.3-66.5s22.5-66.5 51.3-66.5c28.8 0 51.3 29.2 51.3 66.5s-22.5 66.5-51.3 66.5z m0-96c-5.7 0-14.4 11.8-14.4 29.5s8.6 29.5 14.4 29.5 14.4-11.8 14.4-29.5-8.7-29.5-14.4-29.5zM761.5 398.6c-28.8 0-51.3-29.2-51.3-66.5s22.5-66.5 51.3-66.5 51.3 29.2 51.3 66.5-22.5 66.5-51.3 66.5z m0-96c-5.7 0-14.4 11.8-14.4 29.5s8.6 29.5 14.4 29.5 14.4-11.8 14.4-29.5-8.6-29.5-14.4-29.5zM733.4 578.5c-28.8 0-51.3-29.2-51.3-66.5s22.5-66.5 51.3-66.5c28.8 0 51.3 29.2 51.3 66.5s-22.5 66.5-51.3 66.5z m0-96c-5.7 0-14.4 11.8-14.4 29.5s8.6 29.5 14.4 29.5 14.4-11.8 14.4-29.5-8.7-29.5-14.4-29.5zM848.2 578.5c-28.8 0-51.3-29.2-51.3-66.5s22.5-66.5 51.3-66.5 51.3 29.2 51.3 66.5-22.5 66.5-51.3 66.5z m0-96c-5.7 0-14.4 11.8-14.4 29.5s8.6 29.5 14.4 29.5 14.4-11.8 14.4-29.5-8.7-29.5-14.4-29.5zM175.8 578.5c-28.8 0-51.3-29.2-51.3-66.5s22.5-66.5 51.3-66.5c28.8 0 51.3 29.2 51.3 66.5s-22.6 66.5-51.3 66.5z m0-96c-5.7 0-14.4 11.8-14.4 29.5s8.6 29.5 14.4 29.5 14.4-11.8 14.4-29.5-8.7-29.5-14.4-29.5zM290.6 578.5c-28.8 0-51.3-29.2-51.3-66.5s22.5-66.5 51.3-66.5c28.8 0 51.3 29.2 51.3 66.5s-22.5 66.5-51.3 66.5z m0-96c-5.7 0-14.4 11.8-14.4 29.5s8.6 29.5 14.4 29.5S305 529.8 305 512s-8.7-29.5-14.4-29.5zM405.4 578.5c-28.8 0-51.3-29.2-51.3-66.5s22.5-66.5 51.3-66.5c28.8 0 51.3 29.2 51.3 66.5s-22.5 66.5-51.3 66.5z m0-96c-5.7 0-14.4 11.8-14.4 29.5s8.6 29.5 14.4 29.5 14.4-11.8 14.4-29.5-8.7-29.5-14.4-29.5zM262.5 398.6c-10.2 0-18.5-8.3-18.5-18.5v-96c0-10.2 8.3-18.5 18.5-18.5s18.5 8.3 18.5 18.5v96c-0.1 10.2-8.3 18.5-18.5 18.5zM349.2 398.6c-28.8 0-51.3-29.2-51.3-66.5s22.5-66.5 51.3-66.5c28.8 0 51.3 29.2 51.3 66.5s-22.6 66.5-51.3 66.5z m0-96c-5.7 0-14.4 11.8-14.4 29.5s8.6 29.5 14.4 29.5 14.4-11.8 14.4-29.5-8.7-29.5-14.4-29.5zM435.8 398.6c-10.2 0-18.5-8.3-18.5-18.5v-96c0-10.2 8.3-18.5 18.5-18.5s18.5 8.3 18.5 18.5v96c0 10.2-8.3 18.5-18.5 18.5zM602.2 578.5c-10.2 0-18.5-8.3-18.5-18.5v-96c0-10.2 8.3-18.5 18.5-18.5s18.5 8.3 18.5 18.5v96c0 10.2-8.3 18.5-18.5 18.5zM651.4 578.5c-10.2 0-18.5-8.3-18.5-18.5v-96c0-10.2 8.3-18.5 18.5-18.5s18.5 8.3 18.5 18.5v96c0 10.2-8.3 18.5-18.5 18.5zM848.2 398.6c-10.2 0-18.5-8.3-18.5-18.5v-96c0-10.2 8.3-18.5 18.5-18.5s18.5 8.3 18.5 18.5v96c0 10.2-8.3 18.5-18.5 18.5zM175.8 758.3c-28.8 0-51.3-29.2-51.3-66.5s22.5-66.5 51.3-66.5c28.8 0 51.3 29.2 51.3 66.5s-22.6 66.5-51.3 66.5z m0-96c-5.7 0-14.4 11.8-14.4 29.5s8.6 29.5 14.4 29.5 14.4-11.8 14.4-29.5-8.7-29.5-14.4-29.5zM541.3 758.3c-28.8 0-51.3-29.2-51.3-66.5s22.5-66.5 51.3-66.5c28.8 0 51.3 29.2 51.3 66.5s-22.6 66.5-51.3 66.5z m0-96c-5.7 0-14.4 11.8-14.4 29.5s8.6 29.5 14.4 29.5 14.4-11.8 14.4-29.5-8.7-29.5-14.4-29.5zM665.5 758.3c-28.8 0-51.3-29.2-51.3-66.5s22.5-66.5 51.3-66.5c28.8 0 51.3 29.2 51.3 66.5s-22.6 66.5-51.3 66.5z m0-96c-5.7 0-14.4 11.8-14.4 29.5s8.6 29.5 14.4 29.5 14.4-11.8 14.4-29.5-8.7-29.5-14.4-29.5zM848.2 758.3c-28.8 0-51.3-29.2-51.3-66.5s22.5-66.5 51.3-66.5 51.3 29.2 51.3 66.5-22.5 66.5-51.3 66.5z m0-96c-5.7 0-14.4 11.8-14.4 29.5s8.6 29.5 14.4 29.5 14.4-11.8 14.4-29.5-8.7-29.5-14.4-29.5zM391.3 758.3c-10.2 0-18.5-8.3-18.5-18.5v-96c0-10.2 8.3-18.5 18.5-18.5s18.5 8.3 18.5 18.5v96c0 10.3-8.3 18.5-18.5 18.5zM300 758.3c-28.8 0-51.3-29.2-51.3-66.5s22.5-66.5 51.3-66.5c28.8 0 51.3 29.2 51.3 66.5s-22.6 66.5-51.3 66.5z m0-96c-5.7 0-14.4 11.8-14.4 29.5s8.6 29.5 14.4 29.5 14.4-11.8 14.4-29.5-8.7-29.5-14.4-29.5zM449.9 758.3c-10.2 0-18.5-8.3-18.5-18.5v-96c0-10.2 8.3-18.5 18.5-18.5s18.5 8.3 18.5 18.5v96c0 10.3-8.3 18.5-18.5 18.5zM756.8 758.3c-10.2 0-18.5-8.3-18.5-18.5v-96c0-10.2 8.3-18.5 18.5-18.5s18.5 8.3 18.5 18.5v96c0 10.3-8.3 18.5-18.5 18.5z" fill="#6A3906" p-id="11223"></path></svg>