<?xml version="1.0" standalone="no"?><!DOCTYPE svg PUBLIC "-//W3C//DTD SVG 1.1//EN" "http://www.w3.org/Graphics/SVG/1.1/DTD/svg11.dtd"><svg t="1726485055941" class="icon" viewBox="0 0 1024 1024" version="1.1" xmlns="http://www.w3.org/2000/svg" p-id="4399" xmlns:xlink="http://www.w3.org/1999/xlink" width="200" height="200"><path d="M900.742857 786.96a94.251429 94.251429 0 0 0-69.554286 30.857143L744.788571 731.428571C910.32 690.491429 1024 607.565714 1024 512c0-94.034286-109.965714-175.92-271.2-217.474286l93.714286-93.714285a95.931429 95.931429 0 1 0-14.354286-12.457143l-98.72 98.72C693.234286 117.245714 609.142857 0 512 0c-95.565714 0-178.491429 113.68-219.428571 279.211429l-96.251429-96.251429a94.434286 94.434286 0 1 0-73.142857 35.12 93.931429 93.931429 0 0 0 59.702857-21.714286L279.211429 292.571429C113.68 333.508571 0 416.434286 0 512c0 97.142857 117.245714 181.234286 287.12 221.405714l-79.76 79.76a94.388571 94.388571 0 1 0 12.457143 14.354286l74.708571-74.708571C336.08 914.034286 417.965714 1024 512 1024c95.565714 0 178.491429-113.68 219.428571-279.211429L819.737143 833.142857a94.56 94.56 0 1 0 81.005714-46.182857z m-584-483.6A998.457143 998.457143 0 0 1 512 284.445714c72.617143 0 141.542857 7.337143 203.668571 20.4L516.96 503.554286z m390.491429 417.28A998.457143 998.457143 0 0 1 512 739.554286a1007.291429 1007.291429 0 0 1-187.142857-17.074286l192.114286-192.114286zM512 18.96c87.805714 0 164.102857 108.365714 202.022857 266.56-62.022857-12.88-130.285714-20.045714-202.022857-20.045714s-140.011429 7.165714-202.022857 20.045714C347.897143 127.337143 424.194286 18.96 512 18.96zM18.96 512c0-87.805714 108.365714-164.102857 266.56-202.022857-12.88 62.022857-20.045714 130.285714-20.045714 202.022857s7.165714 140.011429 20.045714 202.022857C127.337143 676.102857 18.96 599.805714 18.96 512z m265.485714 0a998.457143 998.457143 0 0 1 18.914286-195.234286l200.194286 200.194286-198.708572 198.708571c-13.062857-62.125714-20.4-131.051429-20.4-203.668571zM512 1005.04c-87.805714 0-164.102857-108.365714-202.022857-266.56 62.022857 12.88 130.285714 20.045714 202.022857 20.045714s140.011429-7.165714 202.022857-20.045714C676.102857 896.662857 599.805714 1005.04 512 1005.04z m208.64-297.805714L530.365714 516.96l192.114286-192.114286A1007.291429 1007.291429 0 0 1 739.554286 512a998.457143 998.457143 0 0 1-18.914286 195.234286zM758.514286 512c0-71.714286-7.165714-140.011429-20.045715-202.022857C896.662857 347.897143 1005.04 424.194286 1005.04 512s-108.377143 164.102857-266.56 202.022857C751.348571 652.011429 758.514286 583.714286 758.514286 512z" fill="#d4237a" p-id="4400"></path><path d="M521.485714 426.662857a94.857143 94.857143 0 1 1-94.857143 94.857143 94.857143 94.857143 0 0 1 94.857143-94.857143z" fill="#d4237a" p-id="4401"></path><path d="M123.257143 123.257143m-75.851429 0a75.851429 75.851429 0 1 0 151.702857 0 75.851429 75.851429 0 1 0-151.702857 0Z" fill="#d4237a" p-id="4402"></path><path d="M142.217143 881.782857m-75.851429 0a75.851429 75.851429 0 1 0 151.702857 0 75.851429 75.851429 0 1 0-151.702857 0Z" fill="#d4237a" p-id="4403"></path><path d="M900.742857 881.782857m-75.851428 0a75.851429 75.851429 0 1 0 151.702857 0 75.851429 75.851429 0 1 0-151.702857 0Z" fill="#d4237a" p-id="4404"></path><path d="M900.742857 123.257143m-75.851428 0a75.851429 75.851429 0 1 0 151.702857 0 75.851429 75.851429 0 1 0-151.702857 0Z" fill="#d4237a" p-id="4405"></path><path d="M521.485714 521.485714m-75.851428 0a75.851429 75.851429 0 1 0 151.702857 0 75.851429 75.851429 0 1 0-151.702857 0Z" fill="#d4237a" p-id="4406"></path></svg>