<?xml version="1.0" standalone="no"?><!DOCTYPE svg PUBLIC "-//W3C//DTD SVG 1.1//EN" "http://www.w3.org/Graphics/SVG/1.1/DTD/svg11.dtd"><svg t="1725846962484" class="icon" viewBox="0 0 1024 1024" version="1.1" xmlns="http://www.w3.org/2000/svg" p-id="3669" xmlns:xlink="http://www.w3.org/1999/xlink" width="200" height="200"><path d="M856.576 565.76H167.424c-1.536 0-2.56-1.024-2.56-2.56v-36.352c0-1.536 1.024-2.56 2.56-2.56h689.152c1.536 0 2.56 1.024 2.56 2.56v36.352c0 1.536-1.024 2.56-2.56 2.56z" p-id="3670" fill="#1afa29"></path><path d="M204.288 526.848v224.768c0 1.536-1.024 2.56-2.56 2.56h-36.352c-1.536 0-2.56-1.024-2.56-2.56v-224.768c0-1.536 1.024-2.56 2.56-2.56h36.352c1.536 0 2.56 1.024 2.56 2.56zM627.712 400.384H396.288c-14.336 0-25.6-11.776-25.6-25.6V143.36c0-14.336 11.776-25.6 25.6-25.6h230.912c14.336 0 25.6 11.776 25.6 25.6v230.912c0.512 14.848-11.264 26.112-25.088 26.112z m-222.208-34.816h212.992V152.576H405.504v212.992zM617.984 910.336H406.016c-14.336 0-25.6-11.776-25.6-25.6v-122.368c0-14.336 11.776-25.6 25.6-25.6h211.968c14.336 0 25.6 11.776 25.6 25.6v122.368c0 13.824-11.264 25.6-25.6 25.6zM415.232 875.52h193.536v-103.936H415.232V875.52zM944.128 910.336H732.16c-14.336 0-25.6-11.776-25.6-25.6v-122.368c0-14.336 11.776-25.6 25.6-25.6h211.968c14.336 0 25.6 11.776 25.6 25.6v122.368c0.512 13.824-11.264 25.6-25.6 25.6z m-202.752-34.816h193.536v-103.936h-193.536V875.52z" p-id="3671" fill="#1afa29"></path><path d="M291.328 910.336H79.872c-14.336 0-25.6-11.776-25.6-25.6v-122.368c0-14.336 11.776-25.6 25.6-25.6H291.84c14.336 0 25.6 11.776 25.6 25.6v122.368c0 13.824-11.776 25.6-26.112 25.6zM89.088 875.52h193.536v-103.936H89.088V875.52zM859.136 526.848v224.768c0 1.536-1.024 2.56-2.56 2.56h-36.352c-1.536 0-2.56-1.024-2.56-2.56v-224.768c0-1.536 1.024-2.56 2.56-2.56h36.352c1.536 0 2.56 1.024 2.56 2.56zM532.48 371.712v379.392c0 1.536-1.024 2.56-2.56 2.56h-36.352c-1.536 0-2.56-1.024-2.56-2.56V371.712c0-1.536 1.024-2.56 2.56-2.56h36.352c1.536 0.512 2.56 1.536 2.56 2.56z" p-id="3672" fill="#1afa29"></path></svg>