<?xml version="1.0" standalone="no"?><!DOCTYPE svg PUBLIC "-//W3C//DTD SVG 1.1//EN" "http://www.w3.org/Graphics/SVG/1.1/DTD/svg11.dtd"><svg t="1725959975788" class="icon" viewBox="0 0 1024 1024" version="1.1" xmlns="http://www.w3.org/2000/svg" p-id="4325" xmlns:xlink="http://www.w3.org/1999/xlink" width="200" height="200"><path d="M92.013714 691.2h27.209143l54.857143 128.731429 53.686857-128.731429h27.501714v197.339429h-29.257142v-123.026286h-0.731429l-39.936 94.793143H160.914286l-39.497143-94.793143v123.026286h-29.257143zM278.966857 818.176a126.976 126.976 0 0 1 3.510857-34.084571 55.881143 55.881143 0 0 1 27.062857-32.182858 56.173714 56.173714 0 0 1 25.6-5.851428 57.344 57.344 0 0 1 26.038858 5.558857 47.542857 47.542857 0 0 1 14.628571 12.580571 44.909714 44.909714 0 0 1 11.556571 19.602286 135.606857 135.606857 0 0 1 3.218286 34.084572 131.657143 131.657143 0 0 1-3.218286 33.792 47.835429 47.835429 0 0 1-11.556571 20.187428 43.885714 43.885714 0 0 1-6.436571 6.144 32.768 32.768 0 0 1-8.777143 5.851429 53.540571 53.540571 0 0 1-26.038857 5.997714 52.516571 52.516571 0 0 1-25.6-5.997714 51.053714 51.053714 0 0 1-15.798858-11.995429 54.418286 54.418286 0 0 1-11.264-20.187428 123.757714 123.757714 0 0 1-2.925714-33.499429z m84.845714 0a128.731429 128.731429 0 0 0-1.316571-21.942857 26.770286 26.770286 0 0 0-5.266286-11.702857 20.48 20.48 0 0 0-8.923428-7.460572 30.427429 30.427429 0 0 0-26.038857 0 23.113143 23.113143 0 0 0-9.216 7.460572 32.768 32.768 0 0 0-5.12 11.702857 107.958857 107.958857 0 0 0-1.609143 21.650286 106.349714 106.349714 0 0 0 1.609143 21.504 36.278857 36.278857 0 0 0 5.12 12.141714 33.938286 33.938286 0 0 0 9.216 7.314286 30.427429 30.427429 0 0 0 26.038857 0 29.257143 29.257143 0 0 0 8.923428-7.314286 29.257143 29.257143 0 0 0 5.266286-12.141714 122.441143 122.441143 0 0 0 1.316571-20.187429zM491.812571 873.910857a45.056 45.056 0 0 1-35.108571 16.237714 43.885714 43.885714 0 0 1-21.211429-5.266285 46.518857 46.518857 0 0 1-14.628571-13.019429 34.962286 34.962286 0 0 1-7.460571-17.993143 185.490286 185.490286 0 0 1-2.340572-35.693714 187.830857 187.830857 0 0 1 2.340572-36.132571 34.523429 34.523429 0 0 1 7.460571-17.408A41.691429 41.691429 0 0 1 456.704 746.057143a43.885714 43.885714 0 0 1 19.309714 4.388571 75.922286 75.922286 0 0 1 15.798857 12.141715v-71.68h27.355429v197.632h-27.355429z m-26.770285-99.474286a27.794286 27.794286 0 0 0-14.628572 3.364572 22.235429 22.235429 0 0 0-8.192 10.093714 58.514286 58.514286 0 0 0-3.364571 14.628572c0 5.266286-0.731429 10.825143-0.731429 16.384s0 10.532571 0.731429 15.652571a58.514286 58.514286 0 0 0 3.364571 14.628571 23.990857 23.990857 0 0 0 8.192 10.093715 25.161143 25.161143 0 0 0 14.628572 3.803428 25.453714 25.453714 0 0 0 15.36-4.096 19.602286 19.602286 0 0 0 7.606857-10.24 58.514286 58.514286 0 0 0 3.657143-14.628571v-14.628572-15.652571a57.490286 57.490286 0 0 0-3.657143-13.750857 20.041143 20.041143 0 0 0-7.606857-10.386286 26.624 26.624 0 0 0-15.36-5.266286zM543.012571 691.2h74.020572a58.514286 58.514286 0 0 1 42.422857 14.628571 52.224 52.224 0 0 1 14.628571 38.326858 46.372571 46.372571 0 0 1-5.705142 23.259428 38.765714 38.765714 0 0 1-8.630858 10.093714 69.193143 69.193143 0 0 1-13.897142 9.069715 39.058286 39.058286 0 0 1 23.405714 17.993143 56.905143 56.905143 0 0 1 7.460571 28.525714 55.003429 55.003429 0 0 1-15.506285 40.521143 50.322286 50.322286 0 0 1-37.595429 15.506285h-80.603429z m29.257143 26.624v56.612571H614.4a29.257143 29.257143 0 0 0 23.405714-8.484571 27.794286 27.794286 0 0 0 6.875429-19.894857 29.257143 29.257143 0 0 0-7.460572-20.333714 32.475429 32.475429 0 0 0-23.405714-7.899429z m0 83.236571v59.392h43.885715a29.988571 29.988571 0 0 0 23.698285-9.069714 32.621714 32.621714 0 0 0 0-41.545143 30.427429 30.427429 0 0 0-23.698285-8.777143zM695.734857 748.105143h27.355429v83.675428a30.134857 30.134857 0 0 0 8.338285 22.235429 27.209143 27.209143 0 0 0 38.619429 0 30.573714 30.573714 0 0 0 7.606857-22.235429v-83.675428H804.571429v140.434286h-27.501715v-14.628572a43.885714 43.885714 0 0 1-35.254857 16.530286 45.494857 45.494857 0 0 1-31.012571-12.726857 44.909714 44.909714 0 0 1-14.628572-35.986286zM834.706286 845.677714A56.32 56.32 0 0 0 877.714286 863.085714a36.278857 36.278857 0 0 0 19.309714-4.681143 14.628571 14.628571 0 0 0 7.460571-13.312 11.849143 11.849143 0 0 0-4.388571-10.532571 23.113143 23.113143 0 0 0-12.288-3.364571l-24.137143-2.194286a45.641143 45.641143 0 0 1-27.940571-11.849143 37.010286 37.010286 0 0 1-11.117715-27.209143 38.473143 38.473143 0 0 1 14.628572-32.475428 57.490286 57.490286 0 0 1 36.132571-11.410286 115.273143 115.273143 0 0 1 16.969143 1.462857 70.363429 70.363429 0 0 1 36.717714 17.993143l-16.969142 20.48a87.771429 87.771429 0 0 0-16.676572-9.801143 56.466286 56.466286 0 0 0-20.041143-3.364571 26.477714 26.477714 0 0 0-17.993143 4.827428 15.506286 15.506286 0 0 0-5.412571 12.141714 9.508571 9.508571 0 0 0 4.096 8.192 23.259429 23.259429 0 0 0 14.628571 5.12L892.342857 804.571429a40.96 40.96 0 0 1 30.72 13.312 45.348571 45.348571 0 0 1 8.777143 29.257142 37.010286 37.010286 0 0 1-16.091429 31.597715 68.169143 68.169143 0 0 1-40.228571 11.556571 84.845714 84.845714 0 0 1-59.977143-25.161143z" fill="#f4ea2a" p-id="4326"></path><path d="M851.675429 223.378286h-112.201143v-56.905143h112.201143z" fill="#f4ea2a" p-id="4327"></path><path d="M680.374857 223.524571m-16.091428 0a16.091429 16.091429 0 1 0 32.182857 0 16.091429 16.091429 0 1 0-32.182857 0Z" fill="#f4ea2a" p-id="4328"></path><path d="M680.374857 286.134857m-16.091428 0a16.091429 16.091429 0 1 0 32.182857 0 16.091429 16.091429 0 1 0-32.182857 0Z" fill="#f4ea2a" p-id="4329"></path><path d="M680.374857 348.745143m-16.091428 0a16.091429 16.091429 0 1 0 32.182857 0 16.091429 16.091429 0 1 0-32.182857 0Z" fill="#f4ea2a" p-id="4330"></path><path d="M680.374857 411.501714m-16.091428 0a16.091429 16.091429 0 1 0 32.182857 0 16.091429 16.091429 0 1 0-32.182857 0Z" fill="#f4ea2a" p-id="4331"></path><path d="M680.374857 474.112m-16.091428 0a16.091429 16.091429 0 1 0 32.182857 0 16.091429 16.091429 0 1 0-32.182857 0Z" fill="#f4ea2a" p-id="4332"></path><path d="M680.374857 536.868571m-16.091428 0a16.091429 16.091429 0 1 0 32.182857 0 16.091429 16.091429 0 1 0-32.182857 0Z" fill="#f4ea2a" p-id="4333"></path><path d="M286.573714 455.533714h56.027429v102.4h-56.027429z" fill="#f4ea2a" p-id="4334"></path><path d="M134.729143 235.227429m10.825143 0l338.066285 0q10.825143 0 10.825143 10.825142l0 236.397715q0 10.825143-10.825143 10.825143l-338.066285 0q-10.825143 0-10.825143-10.825143l0-236.397715q0-10.825143 10.825143-10.825142Z" fill="#f4ea2a" p-id="4335"></path><path d="M174.518857 272.676571h279.990857v180.370286H174.518857z" fill="#f4ea2a" p-id="4336"></path><path d="M178.614857 557.056m9.216 0l253.513143 0q9.216 0 9.216 9.216l0 12.141714q0 9.216-9.216 9.216l-253.513143 0q-9.216 0-9.216-9.216l0-12.141714q0-9.216 9.216-9.216Z" fill="#f4ea2a" p-id="4337"></path></svg>