<?xml version="1.0" standalone="no"?><!DOCTYPE svg PUBLIC "-//W3C//DTD SVG 1.1//EN" "http://www.w3.org/Graphics/SVG/1.1/DTD/svg11.dtd"><svg t="1726485176327" class="icon" viewBox="0 0 1536 1024" version="1.1" xmlns="http://www.w3.org/2000/svg" p-id="6441" xmlns:xlink="http://www.w3.org/1999/xlink" width="300" height="200"><path d="M0 1024V0h85.333333v230.826667c17.066667-14.848 36.010667-25.6 57.173334-32.085334l20.138666 65.194667c-29.525333 9.130667-55.125333 35.84-77.312 81.066667v474.538666c3.84-7.68 7.68-16.64 11.52-26.709333l8.704-24.234667 8.96-28.330666 9.301334-32.512 38.4-154.88 12.373333-47.530667 12.544-44.032c21.333333-70.997333 44.202667-127.317333 71.082667-169.813333a99.584 99.584 0 0 0-29.525334-22.613334l29.866667-61.354666c15.872 7.68 30.208 17.92 43.264 30.72 34.133333-31.146667 74.666667-46.336 124.842667-46.336 104.789333 0 154.453333 54.357333 192.853333 197.546666l8.96 36.010667 8.704 39.594667 8.533333 43.264 17.408 95.573333 8.106667 41.045333 4.096 18.944 8.192 34.986667c9.642667 38.570667 19.626667 69.12 30.890667 92.842667l1.962666-2.986667 56.746667 37.973333a345.429333 345.429333 0 0 1-15.189333 20.992c15.104 9.984 32.426667 14.421333 52.736 14.421334 61.866667 0 103.253333-39.253333 144.213333-138.496l12.288-31.573334 6.144-17.152 12.458667-37.205333 12.8-41.216 33.621333-117.248 12.970667-42.410667 6.314666-19.626666 12.458667-36.522667c17.664-49.237333 35.072-87.04 54.528-115.456a122.794667 122.794667 0 0 0-37.205333-4.949333 104.789333 104.789333 0 0 0-67.669334 29.354666l-45.738666-50.688a173.397333 173.397333 0 0 1 111.786666-46.933333c37.546667-0.085333 67.498667 7.765333 95.317334 24.490667l-4.864-2.730667c18.602667-11.52 39.594667-18.346667 63.829333-21.589333 137.216-18.090667 209.92 67.413333 253.269333 229.205333l7.424 29.269333 22.954667 101.973334 5.376 20.565333c1.706667 5.973333 3.413333 11.178667 5.12 15.701333l2.474667 6.229334-62.72 27.050666a285.184 285.184 0 0 1-13.141334-39.594666l-6.570666-26.965334-16.213334-73.557333-7.082666-29.44a971.861333 971.861333 0 0 0-3.584-13.568c-35.584-132.693333-85.504-191.402667-178.346667-179.2-46.933333 6.229333-79.36 46.933333-115.626667 147.456l-11.605333 33.877333-5.973333 18.432-12.288 40.106667-27.136 94.976-13.909334 46.506667-13.738666 42.666666c-59.306667 176.469333-117.418667 246.528-231.936 246.528-43.946667 0-77.909333-9.728-105.301334-32a175.872 175.872 0 0 1-102.912 32l-4.522666-0.085333 1.877333-68.266667 14.762667-0.512c17.237333-1.706667 33.109333-7.253333 48.128-16.725333-13.653333-24.746667-25.344-55.466667-36.010667-93.013333l-9.130667-34.133334-4.352-18.261333-8.618666-39.424-8.533334-42.922667-17.322666-95.744-8.192-41.386666a1656.490667 1656.490667 0 0 0-4.181334-19.114667l-8.277333-35.328-8.533333-31.317333c-29.013333-98.133333-63.402667-133.973333-122.88-133.973334-31.573333 0-58.538667 11.264-82.688 34.986667 11.434667 20.48 21.674667 43.946667 31.146666 70.4l-64.341333 22.954667a500.394667 500.394667 0 0 0-11.349333-29.269334c-16.981333 32.938667-32.597333 74.496-47.872 125.269334l-11.605334 40.618666-12.970666 50.176-22.186667 91.733334-10.581333 42.154666c-3.498667 13.312-6.912 26.026667-10.24 37.973334l-10.24 34.048c-25.173333 79.872-50.688 123.733333-88.32 140.714666L85.333333 938.666667h1450.666667v85.333333H0z m1435.306667-253.952c30.549333 61.269333 61.610667 90.453333 97.28 91.989333l-2.986667 68.266667c-66.218667-2.986667-115.029333-48.64-155.306667-129.877333zM461.653333 697.002667c20.309333 65.450667 42.837333 110.08 70.485334 136.448l-47.189334 49.322666c-37.802667-36.096-65.109333-89.941333-88.490666-165.546666z m348.842667-131.754667l64.853333 21.333333-14.08 42.325334-18.346666 52.053333-5.632 15.018667-11.093334 27.904-11.434666 26.197333-62.208-28.16 10.666666-24.576 5.290667-12.885333 10.666667-28.074667 17.664-50.176 13.653333-40.96z m542.378667-27.818667l20.309333 65.28 19.370667 59.733334 12.544 35.669333-64.085334 23.552-8.704-24.234667-13.653333-40.789333-30.890667-98.816 65.109334-20.48zM401.066667 452.437333l9.642666 39.253334 29.610667 127.317333-66.304 16.213333L349.866667 531.2l-14.933334-61.696 66.133334-17.066667z m509.013333-139.776l58.88 34.474667c-16.810667 28.842667-32.426667 63.488-49.322667 109.056l-14.848 41.813333-64.597333-22.186666c24.405333-70.997333 45.397333-121.258667 69.888-163.157334z m339.456-21.76c27.818667 41.045333 51.370667 93.184 75.776 162.730667l-64.426667 22.528c-22.613333-64.426667-44.032-111.786667-67.84-146.944z" fill="#f4ea2a" p-id="6442"></path></svg>