<?xml version="1.0" standalone="no"?><!DOCTYPE svg PUBLIC "-//W3C//DTD SVG 1.1//EN" "http://www.w3.org/Graphics/SVG/1.1/DTD/svg11.dtd"><svg t="1725434416788" class="icon" viewBox="0 0 1024 1024" version="1.1" xmlns="http://www.w3.org/2000/svg" p-id="6206" xmlns:xlink="http://www.w3.org/1999/xlink" width="200" height="200"><path d="M269.87008 183.44448h556.032c40.96 0 74.24 33.28 74.24 74.24v481.792c0 40.96-33.28 74.24-74.24 74.24h-556.032c-40.96 0-74.24-33.28-74.24-74.24v-481.792c0-40.96 33.28-74.24 74.24-74.24z" fill="#CAE4FF" p-id="6207"></path><path d="M963.11808 948.37248h-819.2c-9.216 0-17.92-2.048-26.112-5.632-29.184-15.36-50.688-43.008-57.856-75.264-4.096-14.336-6.144-29.184-6.656-43.52-4.096-239.616 0-479.232 0-718.336 0-4.096 0.512-8.192 1.536-12.288 1.536-8.704 6.656-16.384 13.312-21.504 2.56-1.536 5.632-3.072 8.704-3.584h6.144c3.072 0.512 5.632 2.048 8.704 3.584 6.656 5.12 11.776 12.8 13.312 21.504 0.512 2.56 1.024 5.632 1.024 8.192 9.216 239.104-3.584 479.232 0.512 718.848 1.024 28.672 17.408 51.712 37.376 53.76 273.408 9.728 547.328 0 820.736 0 7.68 0.512 14.336 4.608 18.432 11.264 5.632 9.216 8.192 19.968 7.168 30.72-0.512 10.24-4.608 19.968-11.776 27.648-5.12 2.56-10.24 4.608-15.36 4.608z m-80.384-838.656c4.608 1.024 8.704 3.072 11.776 6.656 11.264 13.824 14.336 32.768 7.68 49.152-2.048 6.144-6.144 11.264-11.264 14.848-49.152 31.232-101.376 53.248-151.04 83.456-23.552 16.384-40.96 39.936-50.176 67.584-19.968 56.32-36.864 115.2-56.32 172.544-7.68 22.528-18.432 43.52-32.256 62.464-26.624 42.496-74.752 66.048-124.928 60.928-17.408-3.072-33.792-9.216-48.64-18.944-8.704-5.632-16.896-11.776-25.6-17.408-50.176-30.208-108.032 0-133.632 68.608-9.728 27.648-18.944 58.368-27.648 85.504-1.536 5.12-4.608 10.24-7.68 14.336-5.12 6.144-13.824 8.704-22.016 6.144-8.704-3.584-14.848-10.752-17.408-19.968-3.072-9.216-3.584-18.944-1.024-28.672 8.192-29.696 18.432-58.368 28.16-87.552 7.168-20.992 16.896-40.96 29.184-58.88 25.6-43.52 73.728-69.12 123.904-66.048 18.944 2.56 36.864 9.216 52.736 19.456 8.704 5.632 16.896 11.776 25.6 17.408 9.728 6.144 20.992 9.728 32.768 11.264 31.232 2.048 60.928-12.8 78.848-38.4 9.216-12.288 16.896-26.112 22.016-40.96 20.48-56.32 36.864-115.2 56.32-172.544 10.752-33.28 29.696-62.976 54.272-87.552 8.192-7.68 16.896-14.336 26.624-19.968 49.152-28.16 98.304-54.272 147.456-81.408 2.56-1.024 4.608-2.048 7.168-2.56 1.536 0.512 3.072 0.512 5.12 0.512z" fill="#0972E7" p-id="6208"></path></svg>